<?xml version="1.0" encoding="UTF-8" standalone="no"?>
<!-- Created with Inkscape (http://www.inkscape.org/) -->

<svg
   xmlns:dc="http://purl.org/dc/elements/1.1/"
   xmlns:cc="http://creativecommons.org/ns#"
   xmlns:rdf="http://www.w3.org/1999/02/22-rdf-syntax-ns#"
   xmlns:svg="http://www.w3.org/2000/svg"
   xmlns="http://www.w3.org/2000/svg"
   xmlns:xlink="http://www.w3.org/1999/xlink"
   xmlns:sodipodi="http://sodipodi.sourceforge.net/DTD/sodipodi-0.dtd"
   xmlns:inkscape="http://www.inkscape.org/namespaces/inkscape"
   width="1024"
   height="1024"
   viewBox="0 0 1024 1024"
   id="svg2"
   version="1.1"
   inkscape:version="0.91 r13725"
   sodipodi:docname="Genetics.svg"
   inkscape:export-filename="C:\Projects\ButterKnife\Icons\Genetics_1024x1024.png"
   inkscape:export-xdpi="90"
   inkscape:export-ydpi="90">
  <defs
     id="defs4">
    <linearGradient
       inkscape:collect="always"
       id="linearGradient3338">
      <stop
         style="stop-color:#003380;stop-opacity:1"
         offset="0"
         id="stop3340" />
      <stop
         style="stop-color:#191817;stop-opacity:1"
         offset="1"
         id="stop3342" />
    </linearGradient>
    <linearGradient
       inkscape:collect="always"
       xlink:href="#linearGradient3338"
       id="linearGradient3344"
       x1="478.81232"
       y1="-64.866623"
       x2="478.81232"
       y2="1167.5195"
       gradientUnits="userSpaceOnUse" />
    <filter
       inkscape:label="Film Grain"
       inkscape:menu="Image Effects"
       inkscape:menu-tooltip="Adds a small scale graininess"
       style="color-interpolation-filters:sRGB;"
       id="filter4157">
      <feTurbulence
         type="fractalNoise"
         numOctaves="3"
         baseFrequency="1"
         seed="0"
         result="result0"
         id="feTurbulence4159" />
      <feColorMatrix
         result="result4"
         values="0"
         type="saturate"
         id="feColorMatrix4161" />
      <feComposite
         in="SourceGraphic"
         in2="result4"
         operator="arithmetic"
         k1="0.5"
         k2="0.25"
         k3="0.25"
         result="result2"
         id="feComposite4163" />
      <feBlend
         result="result5"
         mode="normal"
         in="result2"
         in2="SourceGraphic"
         id="feBlend4165" />
      <feComposite
         in="result5"
         in2="SourceGraphic"
         operator="in"
         result="result3"
         id="feComposite4167" />
    </filter>
    <filter
       style="color-interpolation-filters:sRGB;"
       inkscape:label="Drop Shadow"
       id="filter4270">
      <feFlood
         flood-opacity="0.498039"
         flood-color="rgb(0,0,0)"
         result="flood"
         id="feFlood4272" />
      <feComposite
         in="flood"
         in2="SourceGraphic"
         operator="in"
         result="composite1"
         id="feComposite4274" />
      <feGaussianBlur
         in="composite1"
         stdDeviation="3"
         result="blur"
         id="feGaussianBlur4276" />
      <feOffset
         dx="6"
         dy="6"
         result="offset"
         id="feOffset4278" />
      <feComposite
         in="SourceGraphic"
         in2="offset"
         operator="over"
         result="composite2"
         id="feComposite4280" />
    </filter>
  </defs>
  <sodipodi:namedview
     id="base"
     pagecolor="#ffffff"
     bordercolor="#666666"
     borderopacity="1.0"
     inkscape:pageopacity="0.0"
     inkscape:pageshadow="2"
     inkscape:zoom="0.27575758"
     inkscape:cx="755.72384"
     inkscape:cy="444.18531"
     inkscape:document-units="px"
     inkscape:current-layer="layer1"
     showgrid="false"
     borderlayer="true"
     units="px"
     inkscape:window-width="1440"
     inkscape:window-height="897"
     inkscape:window-x="-8"
     inkscape:window-y="-8"
     inkscape:window-maximized="1" />
  <metadata
     id="metadata7">
    <rdf:RDF>
      <cc:Work
         rdf:about="">
        <dc:format>image/svg+xml</dc:format>
        <dc:type
           rdf:resource="http://purl.org/dc/dcmitype/StillImage" />
        <dc:title></dc:title>
      </cc:Work>
    </rdf:RDF>
  </metadata>
  <g
     inkscape:label="Layer 1"
     inkscape:groupmode="layer"
     id="layer1"
     transform="translate(0,-28.362161)">
    <rect
       style="fill:url(#linearGradient3344);fill-rule:evenodd;stroke:none;stroke-width:1px;stroke-linecap:butt;stroke-linejoin:miter;stroke-opacity:1;fill-opacity:1;filter:url(#filter4157)"
       id="rect3336"
       width="1100"
       height="1100"
       x="-38"
       y="-9.6378393" />
    <path
       inkscape:connector-curvature="0"
       id="path4208"
       d="m 315.67297,631.43956 c -0.1451,-14.7758 -4.56729,-36.0304 -5.1003,-53.3237 -5.5572,-50.5357 4.8019,-102.9466 32.66021,-145.832 15.9717,-25.3054 34.0705,-33.0493 61.7724,-43.8968 -25.1983,30.1918 -45.0513,43.695 -42.6126,83.2924 1.2365,80.4484 23.5028,158.2548 35.64423,237.2371 9.95056,59.9991 18.73538,123.3331 -2.77715,181.9964 -11.99918,34.6603 -32.49228,70.143 -66.70018,86.6687 -12.2699,-16.1422 15.5078,-37.207 14.4656,-57.1094 10.1528,-71.4061 -6.6174,-142.8576 -14.4075,-213.6372 z"
       sodipodi:nodetypes="ccccccccccc"
       style="fill:#6854c1;fill-opacity:1;filter:url(#filter4270)" />
    <path
       style="fill:#6854c1;fill-opacity:1;filter:url(#filter4270)"
       sodipodi:nodetypes="ccccccccccc"
       d="m 708.32703,449.28476 c 0.14514,14.7758 4.56731,36.0304 5.10027,53.3236 5.55722,50.5358 -4.80187,102.9467 -32.66019,145.8321 -15.97177,25.3054 -34.07056,33.0493 -61.77243,43.8967 25.19827,-30.1917 45.05133,-43.6949 42.61257,-83.2923 -1.23641,-80.4484 -23.50274,-158.2549 -35.64419,-237.2372 -9.95056,-59.9991 -18.73538,-123.333 2.77715,-181.9964 11.99915,-34.6602 32.49231,-70.14297 66.7002,-86.6686 12.26994,16.1422 -15.50775,37.207 -14.46557,57.1094 -10.15283,71.4061 6.61738,142.8576 14.4075,213.6372 z"
       id="path4210"
       inkscape:connector-curvature="0" />
    <path
       inkscape:connector-curvature="0"
       style="opacity:1;fill:#dc59d5;fill-opacity:1;stroke:none;stroke-width:25.13800049;stroke-linecap:round;stroke-linejoin:round;stroke-miterlimit:4;stroke-dasharray:none;stroke-opacity:1"
       d="m 682.33965,131.39918 c -2.5562,0 -5.11163,0.97881 -7.07032,2.9375 l -12.50586,12.50586 c -3.91737,3.91737 -3.91737,10.2252 0,14.14258 l 101.4375,101.43945 c 3.91737,3.91737 10.22521,3.91737 14.14258,0 l 12.50586,-12.50586 c 3.91737,-3.91737 3.91737,-10.22521 0,-14.14258 L 689.40997,134.33668 c -1.9587,-1.95869 -4.51413,-2.9375 -7.07031,-2.9375 z"
       id="rect4214" />
    <path
       inkscape:connector-curvature="0"
       style="opacity:1;fill:#ed3d32;fill-opacity:1;stroke:none;stroke-width:25.13800049;stroke-linecap:round;stroke-linejoin:round;stroke-miterlimit:4;stroke-dasharray:none;stroke-opacity:1"
       d="m 658.31231,226.61012 c -2.55619,0 -5.11163,0.97881 -7.07031,2.9375 l -12.50586,12.50586 c -3.91737,3.91737 -3.91737,10.2252 0,14.14257 l 69.05273,69.05078 c 3.91738,3.91738 10.22326,3.91738 14.14063,0 l 12.50586,-12.50585 c 3.91737,-3.91738 3.91737,-10.22326 0,-14.14063 l -69.05078,-69.05273 c -1.9587,-1.95869 -4.51608,-2.9375 -7.07227,-2.9375 z"
       id="rect4216" />
    <path
       inkscape:connector-curvature="0"
       style="opacity:1;fill:#58c0dd;fill-opacity:1;stroke:none;stroke-width:25.13800049;stroke-linecap:round;stroke-linejoin:round;stroke-miterlimit:4;stroke-dasharray:none;stroke-opacity:1"
       d="m 806.70488,254.48316 c -2.55619,0 -5.11163,0.97882 -7.0703,2.9375 l -12.50586,12.50586 c -3.91737,3.91737 -3.91737,10.22521 0,14.14258 l 110.95703,110.95703 c 3.91737,3.91737 10.22521,3.91737 14.14258,0 l 12.50586,-12.50586 c 3.91737,-3.91737 3.91737,-10.2252 0,-14.14258 L 813.7752,257.42066 c -1.95868,-1.95868 -4.51413,-2.9375 -7.07031,-2.9375 z"
       id="rect4218" />
    <path
       inkscape:connector-curvature="0"
       style="opacity:1;fill:#b5d337;fill-opacity:1;stroke:none;stroke-width:25.13800049;stroke-linecap:round;stroke-linejoin:round;stroke-miterlimit:4;stroke-dasharray:none;stroke-opacity:1"
       d="m 749.34356,317.63941 c -2.55619,0 -5.11358,0.97882 -7.07227,2.9375 l -12.50585,12.50586 c -3.91738,3.91737 -3.91738,10.22521 0,14.14258 l 69.05273,69.05273 c 3.91737,3.91738 10.2252,3.91738 14.14257,0 l 12.50586,-12.50586 c 3.91737,-3.91737 3.91737,-10.2252 0,-14.14257 l -69.05274,-69.05274 c -1.95867,-1.95868 -4.51412,-2.9375 -7.0703,-2.9375 z"
       id="rect4220" />
    <path
       inkscape:connector-curvature="0"
       style="opacity:1;fill:#dc59d5;fill-opacity:1;stroke:none;stroke-width:25.13800049;stroke-linecap:round;stroke-linejoin:round;stroke-miterlimit:4;stroke-dasharray:none;stroke-opacity:1"
       d="m 369.97636,426.79176 c -2.55619,0 -5.11358,0.98076 -7.07226,2.93945 l -15.05274,15.05273 c -3.91737,3.91738 -3.91737,10.22521 0,14.14258 L 460.33965,571.4148 c 3.91737,3.91737 10.2252,3.91737 14.14257,0 l 15.05274,-15.05468 c 3.91737,-3.91738 3.91737,-10.22326 0,-14.14063 L 377.04669,429.73121 c -1.95869,-1.95869 -4.51414,-2.93945 -7.07032,-2.93945 z"
       id="rect4222" />
    <path
       inkscape:connector-curvature="0"
       style="opacity:1;fill:#ed3d32;fill-opacity:1;stroke:none;stroke-width:25.13800049;stroke-linecap:round;stroke-linejoin:round;stroke-miterlimit:4;stroke-dasharray:none;stroke-opacity:1"
       d="m 349.32207,530.47144 c -2.55619,0 -5.11163,0.97882 -7.07032,2.9375 L 329.7459,545.9148 c -3.91737,3.91737 -3.91737,10.22521 0,14.14258 l 74.17968,74.17969 c 3.91738,3.91737 10.22522,3.91737 14.14259,0 l 12.50585,-12.50586 c 3.91737,-3.91737 3.91737,-10.22325 0,-14.14063 l -74.17969,-74.18164 c -1.95868,-1.95868 -4.51607,-2.9375 -7.07225,-2.9375 z"
       id="rect4224" />
    <path
       inkscape:connector-curvature="0"
       style="opacity:1;fill:#b5d337;fill-opacity:1;stroke:none;stroke-width:25.13800049;stroke-linecap:round;stroke-linejoin:round;stroke-miterlimit:4;stroke-dasharray:none;stroke-opacity:1"
       d="m 502.84355,563.4734 c -2.55619,0 -5.11358,0.97881 -7.07226,2.9375 l -12.50585,12.50586 c -3.91738,3.91737 -3.91738,10.2252 0,14.14257 l 112.79687,112.79688 c 3.91737,3.91737 10.2252,3.91737 14.14257,0 l 12.50586,-12.50586 c 3.91737,-3.91737 3.91737,-10.22521 0,-14.14258 L 509.91386,566.4109 c -1.95868,-1.95869 -4.51412,-2.9375 -7.07031,-2.9375 z"
       id="rect4226" />
    <path
       inkscape:connector-curvature="0"
       style="opacity:1;fill:#58c0dd;fill-opacity:1;stroke:none;stroke-width:25.13800049;stroke-linecap:round;stroke-linejoin:round;stroke-miterlimit:4;stroke-dasharray:none;stroke-opacity:1"
       d="m 445.48027,626.62965 c -2.55619,0 -5.11162,0.97881 -7.07031,2.9375 l -12.50585,12.50586 c -3.91738,3.91737 -3.91738,10.2252 0,14.14257 l 69.05272,69.05274 c 3.91738,3.91737 10.22522,3.91737 14.14259,0 l 12.50585,-12.50586 c 3.91737,-3.91737 3.91737,-10.22521 0,-14.14258 l -69.05273,-69.05273 c -1.95868,-1.95869 -4.51607,-2.9375 -7.07227,-2.9375 z"
       id="rect4228" />
    <path
       inkscape:connector-curvature="0"
       style="opacity:1;fill:#ed3d32;fill-opacity:1;stroke:none;stroke-width:25.13800049;stroke-linecap:round;stroke-linejoin:round;stroke-miterlimit:4;stroke-dasharray:none;stroke-opacity:1"
       d="m 562.79472,502.43824 c -2.55619,0 -5.11162,0.97881 -7.0703,2.9375 l -15.0547,15.05274 c -3.91737,3.91737 -3.91737,10.2252 0,14.14257 l 110.22266,110.22071 c 3.91737,3.91737 10.22521,3.91737 14.14258,0 l 15.05273,-15.05274 c 3.91737,-3.91737 3.91737,-10.2252 0,-14.14258 L 569.86504,505.37574 c -1.95869,-1.95869 -4.51413,-2.9375 -7.07032,-2.9375 z"
       id="rect4230" />
    <path
       inkscape:connector-curvature="0"
       style="opacity:1;fill:#ffdd41;fill-opacity:1;stroke:none;stroke-width:25.13800049;stroke-linecap:round;stroke-linejoin:round;stroke-miterlimit:4;stroke-dasharray:none;stroke-opacity:1"
       d="m 619.20879,439.61402 c -2.55619,0 -5.11357,0.97882 -7.07227,2.9375 l -12.50585,12.50586 c -3.91737,3.91737 -3.91737,10.22521 0,14.14258 l 70.32812,70.32812 c 3.91738,3.91738 10.2252,3.91738 14.14257,0 l 12.50586,-12.50586 c 3.91737,-3.91737 3.91737,-10.2252 0,-14.14257 L 626.2791,442.55152 c -1.95869,-1.95868 -4.51412,-2.9375 -7.07031,-2.9375 z"
       id="rect4232" />
    <path
       inkscape:connector-curvature="0"
       style="opacity:1;fill:#58c0dd;fill-opacity:1;stroke:none;stroke-width:25.13800049;stroke-linecap:round;stroke-linejoin:round;stroke-miterlimit:4;stroke-dasharray:none;stroke-opacity:1"
       d="m 431.37871,372.30152 c -2.55619,0 -5.11358,0.98077 -7.07227,2.93946 l -12.50586,12.50585 c -3.91737,3.91738 -3.91737,10.22326 0,14.14063 l 108.49025,108.49023 c 3.91737,3.91738 10.2252,3.91738 14.14257,0 l 12.50585,-12.5039 c 3.91738,-3.91737 3.91738,-10.22521 0,-14.14258 L 438.44902,375.24098 c -1.95868,-1.95869 -4.51411,-2.93946 -7.07031,-2.93946 z"
       id="rect4234" />
    <path
       inkscape:connector-curvature="0"
       style="opacity:1;fill:#b5d337;fill-opacity:1;stroke:none;stroke-width:25.13800049;stroke-linecap:round;stroke-linejoin:round;stroke-miterlimit:4;stroke-dasharray:none;stroke-opacity:1"
       d="m 528.17754,348.58277 c -2.55619,0 -5.11162,0.98077 -7.07032,2.93945 l -12.50586,12.50586 c -3.91737,3.91738 -3.91737,10.22326 0,14.14063 l 69.05274,69.05273 c 3.91737,3.91738 10.22325,3.91738 14.14062,0 l 12.50586,-12.50586 c 3.91737,-3.91737 3.91737,-10.2252 0,-14.14257 L 535.2498,351.52222 c -1.95868,-1.95868 -4.51607,-2.93945 -7.07226,-2.93945 z"
       id="rect4236" />
    <path
       inkscape:connector-curvature="0"
       style="opacity:1;fill:#ed3d32;fill-opacity:1;stroke:none;stroke-width:25.13800049;stroke-linecap:round;stroke-linejoin:round;stroke-miterlimit:4;stroke-dasharray:none;stroke-opacity:1"
       d="m 249.95879,802.45191 c -2.55619,0 -5.11358,0.98077 -7.07227,2.93946 l -15.05273,15.05273 c -3.91738,3.91737 -3.91738,10.22521 0,14.14258 l 109.3164,109.31445 c 3.91737,3.91737 10.22326,3.91737 14.14063,0 L 366.3455,928.8484 c 3.91738,-3.91737 3.91738,-10.22521 0,-14.14258 L 257.02911,805.39137 c -1.95869,-1.95869 -4.51412,-2.93946 -7.07032,-2.93946 z"
       id="rect4238" />
    <path
       inkscape:connector-curvature="0"
       style="opacity:1;fill:#dd56d5;fill-opacity:1;stroke:none;stroke-width:25.13800049;stroke-linecap:round;stroke-linejoin:round;stroke-miterlimit:4;stroke-dasharray:none;stroke-opacity:1"
       d="m 306.3709,739.62965 c -2.5562,0 -5.11163,0.97881 -7.07032,2.9375 l -12.50585,12.50586 c -3.91737,3.91737 -3.91737,10.2252 0,14.14257 l 74.18164,74.17969 c 3.91738,3.91737 10.22326,3.91737 14.14063,0 l 12.50586,-12.50586 c 3.91737,-3.91737 3.91737,-10.2252 0,-14.14258 l -74.17969,-74.17968 c -1.95869,-1.95869 -4.51608,-2.9375 -7.07227,-2.9375 z"
       id="rect4240" />
    <path
       inkscape:connector-curvature="0"
       style="opacity:1;fill:#ffdd41;fill-opacity:1;stroke:none;stroke-width:25.13800049;stroke-linecap:round;stroke-linejoin:round;stroke-miterlimit:4;stroke-dasharray:none;stroke-opacity:1"
       d="m 118.54083,672.31715 c -2.55619,0 -5.11163,0.98076 -7.07032,2.93945 l -12.505855,12.50391 c -3.917377,3.91737 -3.917377,10.2252 0,14.14257 L 207.45489,810.39332 c 3.91737,3.91737 10.22521,3.91737 14.14258,0 l 12.50586,-12.50586 c 3.91737,-3.91737 3.91737,-10.22325 0,-14.14063 L 125.61309,675.2566 c -1.95868,-1.95869 -4.51607,-2.93945 -7.07226,-2.93945 z"
       id="rect4242" />
    <path
       inkscape:connector-curvature="0"
       style="opacity:1;fill:#b5d337;fill-opacity:1;stroke:none;stroke-width:25.13800049;stroke-linecap:round;stroke-linejoin:round;stroke-miterlimit:4;stroke-dasharray:none;stroke-opacity:1"
       d="m 215.34161,648.5984 c -2.55619,0 -5.11163,0.97881 -7.07032,2.9375 l -12.50586,12.50586 c -3.91738,3.91737 -3.91738,10.2252 0,14.14257 l 69.05078,69.05274 c 3.91737,3.91737 10.2252,3.91737 14.14258,0 l 12.50586,-12.50586 c 3.91737,-3.91737 3.91737,-10.22521 0,-14.14258 L 222.41191,651.5359 c -1.95869,-1.95869 -4.51412,-2.9375 -7.07031,-2.9375 z"
       id="rect4244" />
    <path
       d="m 614.89855,344.31716 c -14.77579,-0.1451 -36.0304,-4.5673 -53.32366,-5.1002 -50.53575,-5.5572 -102.94663,4.8018 -145.83208,32.6602 -25.30534,15.9717 -49.71684,34.0705 -69.53904,56.6439 30.1917,-25.1983 69.33725,-39.9228 108.93464,-37.4841 80.44841,1.2364 158.25489,23.5028 237.23718,35.6442 59.9991,9.9506 123.33304,18.7354 181.99639,-2.7771 34.66026,-11.9992 70.14301,-32.4923 86.66864,-66.7002 -16.1422,-12.27 -37.20696,15.5077 -57.10936,14.4655 -71.40615,10.1529 -142.8576,-6.6173 -213.63725,-14.4075 -25.13182,-4.3149 -50.26364,-8.6298 -75.39546,-12.9447 z"
       id="path8"
       inkscape:connector-curvature="0"
       style="fill:#c780e0;fill-opacity:1;filter:url(#filter4270)" />
    <path
       style="fill:#c780e0;fill-opacity:1;filter:url(#filter4270)"
       inkscape:connector-curvature="0"
       id="path4212"
       d="m 409.1014,736.40706 c 14.7758,0.1452 36.0304,4.5673 53.32367,5.1003 50.53575,5.5572 102.94663,-4.8019 145.83208,-32.6602 25.30538,-15.9718 49.71682,-34.0706 69.53904,-56.644 -30.19172,25.1983 -69.33726,39.9229 -108.93464,37.4841 -80.44841,-1.2364 -158.25489,-23.5027 -237.23717,-35.6442 -59.9991,-9.9505 -123.333,-18.7353 -181.9964,2.7772 -34.6602,11.9991 -70.143005,32.4923 -86.668605,66.7002 16.1422,12.2699 37.207005,-15.5078 57.109405,-14.4656 71.4061,-10.1528 142.8576,6.6174 213.6372,14.4075 25.1318,4.3149 50.2636,8.6298 75.39543,12.9447 z" />
  </g>
</svg>
